<?xml version="1.0" encoding="UTF-8"?>
<svg xmlns="http://www.w3.org/2000/svg" viewBox="0 0 720.71 668.78">
  <defs>
    <style>
      .cls-1 {
        fill: #b0aeb4;
      }

      .cls-2, .cls-3 {
        fill: #908d96;
      }

      .cls-3 {
        font-family: SitkaText, Sitka;
        font-size: 300px;
        font-variation-settings: 'opsz' 11, 'wght' 400;
      }
    </style>
  </defs>
  <g id="Layer_2">
    <g>
      <rect class="cls-1" x="160.74" y="230.92" width="55.96" height="459.13" transform="translate(-274.43 278.4) rotate(-46.25)"/>
      <path class="cls-2" d="M42.31,285.07l328.06,314.02-35.24,36.81L7.07,321.88l35.24-36.81M42.15,278L0,322.04l335.29,320.94,42.15-44.04L42.15,278h0Z"/>
    </g>
    <g>
      <rect class="cls-1" x="270.87" y="445.65" width="495.77" height="55.96" transform="translate(-183.49 490.19) rotate(-43.75)"/>
      <path class="cls-2" d="M678.4,285.54l35.24,36.81-354.53,339.36-35.24-36.81,354.53-339.36M678.56,278.47l-361.75,346.27,42.15,44.04,361.75-346.27-42.15-44.04h0Z"/>
    </g>
    <polygon class="cls-1" points="356.95 586.31 360.65 589.5 324.65 625.5 319.65 620.5 356.95 586.31"/>
    <text class="cls-3" transform="translate(252.38 460.1)"><tspan x="0" y="0">G</tspan></text>
  </g>
  <g id="Layer_1">
    <g>
      <rect class="cls-1" x="-77.52" y="301.33" width="589" height="34.61" transform="translate(-163.42 381.07) rotate(-65.07)"/>
      <path class="cls-2" d="M326.65,47.6l26.85,12.48L107.31,589.66l-26.85-12.48L326.65,47.6M324.23,40.96L73.82,579.6l35.92,16.7L360.15,57.66l-35.92-16.7h0Z"/>
    </g>
    <g>
      <rect class="cls-1" x="485.85" y="24" width="34.61" height="589" transform="translate(-87.37 241.78) rotate(-24.93)"/>
      <path class="cls-2" d="M393.48,47.47l246.19,529.57-26.85,12.48L366.63,59.96l26.85-12.48M395.91,40.83l-35.92,16.7,250.41,538.64,35.92-16.7L395.91,40.83h0Z"/>
    </g>
    <g>
      <path class="cls-1" d="M360.15,79.5c-21.23,0-38.5-17.27-38.5-38.5S338.92,2.5,360.15,2.5s38.5,17.27,38.5,38.5-17.27,38.5-38.5,38.5Z"/>
      <path class="cls-2" d="M360.15,5c19.85,0,36,16.15,36,36s-16.15,36-36,36-36-16.15-36-36,16.15-36,36-36M360.15,0c-22.64,0-41,18.36-41,41s18.36,41,41,41,41-18.36,41-41S382.8,0,360.15,0h0Z"/>
    </g>
    <g>
      <rect class="cls-2" x="357.65" y="21.5" width="6" height="38" transform="translate(171.9 350.47) rotate(-65.07)"/>
      <path class="cls-2" d="M345.9,33.09l29.92,13.91-.42.91-29.92-13.91.42-.91M343.48,26.45l-4.64,9.97,38.99,18.13,4.64-9.97-38.99-18.13h0Z"/>
    </g>
  </g>
</svg>